PathFileType	4	(X/Y/Z)	c:\Git\powerlifing_model_clean\simulations\HC835B\Session1\HC835B_OGW_0005\marker_experimental.trc
DataRate	CameraRate	NumFrames	NumMarkers	Units	OrigDataRate	OrigDataStartFrame	OrigNumFrames
240.000000	240.000000	4	38	mm	240.000000	156	418
Frame#	Time	RPSI			LPSI			RASI			LASI			RTH1			RTH2			RTH3			RTH4			RSK1			RSK2			RSK3			RSK4			RCAL1			RCAL2			RCAL3			RST			RPT			RTN			RFMB			RSMB			RVMB			RFMH			RSMH			RVMH			RPM			LTH1			LTH2			LTH3			LTH4			LSK1			LSK2			LSK3			LSK4			LCAL1			LCAL2			LCAL3			LFMH			LVMH			
		X1	Y1	Z1	X2	Y2	Z2	X3	Y3	Z3	X4	Y4	Z4	X5	Y5	Z5	X6	Y6	Z6	X7	Y7	Z7	X8	Y8	Z8	X9	Y9	Z9	X10	Y10	Z10	X11	Y11	Z11	X12	Y12	Z12	X13	Y13	Z13	X14	Y14	Z14	X15	Y15	Z15	X16	Y16	Z16	X17	Y17	Z17	X18	Y18	Z18	X19	Y19	Z19	X20	Y20	Z20	X21	Y21	Z21	X22	Y22	Z22	X23	Y23	Z23	X24	Y24	Z24	X25	Y25	Z25	X26	Y26	Z26	X27	Y27	Z27	X28	Y28	Z28	X29	Y29	Z29	X30	Y30	Z30	X31	Y31	Z31	X32	Y32	Z32	X33	Y33	Z33	X34	Y34	Z34	X35	Y35	Z35	X36	Y36	Z36	X37	Y37	Z37	X38	Y38	Z38	

157	0.65	472.0701599121095	1087.004638671875	-1443.297607421875	580.0317993164064	1081.512817382813	-1440.367431640625	395.3954162597657	1039.234008789063	-1240.819580078125	637.5937500000001	1040.094360351563	-1225.941528320313	331.0097656250001	777.4346313476565	-1370.328857421875	338.2600402832032	755.0551757812501	-1314.13134765625	338.0364685058594	693.6726684570314	-1362.242431640625	356.4906921386719	671.6602172851564	-1311.138427734375	400.1895446777345	360.4837951660157	-1655.867919921875	386.7350463867189	310.4733886718751	-1622.428955078125	403.7288513183595	307.2216491699219	-1681.403442382813	401.8455810546876	258.5372009277344	-1646.131225585938	473.1228027343751	233.4908599853516	-1808.550659179688	511.1215209960939	205.4600830078126	-1822.242919921875	449.2040405273439	202.8769683837891	-1837.794311523438	513.5195922851564	167.757553100586	-1760.763427734375	416.9011535644532	165.513412475586	-1796.414184570313	488.3607788085939	139.9754333496094	-1715.183837890625	487.0089721679689	104.6857376098633	-1708.09130859375	434.0505981445314	107.4889678955078	-1695.74951171875	408.6687927246095	113.3703155517578	-1788.153442382813	496.7771606445314	48.9267921447754	-1698.092041015625	438.7768859863282	49.9518394470215	-1682.11767578125	381.4056701660157	47.68091583251954	-1753.4130859375	448.2052307128907	28.59579849243165	-1646.016357421875	703.3937988281251	771.9473876953127	-1221.396240234375	702.6774291992189	784.612243652344	-1161.560302734375	693.6546020507814	704.3442993164064	-1169.583618164063	675.7691650390626	718.6357421875001	-1112.933837890625	655.0823364257814	271.0970153808594	-1098.509033203125	654.2986450195314	264.2784118652344	-1045.276245117188	649.1939086914064	221.3421630859376	-1071.5546875	632.9805297851564	217.7653808593751	-1016.666015625	584.7013549804689	83.1117630004883	-1105.671508789063	614.3343505859376	45.42164611816407	-1103.010131835938	556.1430053710939	44.78224182128907	-1098.387329101563	558.2987060546876	73.90247344970705	-876.5401611328127	660.4899902343751	38.02121734619141	-913.9426269531252	
158	0.6541666666666667	472.4328002929689	1087.196411132813	-1435.77587890625	580.5833740234376	1082.246704101563	-1432.8515625	396.4199523925782	1039.576171875	-1232.956909179688	638.2208862304689	1040.819946289063	-1218.227905273438	330.7945556640626	776.7581176757815	-1359.979125976563	337.8853759765626	754.9969482421876	-1303.493530273438	337.3912963867188	692.9843750000001	-1350.918212890625	355.5711364746094	671.4301757812501	-1299.516235351563	399.1311035156251	363.0752258300782	-1644.40625	385.4398803710939	312.3280334472657	-1611.857421875	402.5413208007814	310.3118591308594	-1670.836791992188	400.5921630859376	261.0207824707032	-1636.331787109375	471.7373046875001	240.5919036865235	-1797.509521484375	509.9338378906251	213.4946899414063	-1812.395874023438	448.054412841797	211.2022857666016	-1828.08642578125	512.6574707031251	173.2672729492188	-1752.701171875	416.3142395019532	171.7213592529297	-1788.5966796875	487.3900451660157	143.3689880371094	-1708.25048828125	486.229461669922	107.7795944213867	-1702.529663085938	433.2576293945314	109.8268966674805	-1690.169311523438	407.7104492187501	119.4336547851563	-1782.232666015625	496.338348388672	51.44753646850587	-1694.94677734375	438.253387451172	51.22650146484376	-1679.173950195313	381.4621276855469	52.20706176757814	-1750.052612304688	448.1188049316407	28.07554054260255	-1644.434326171875	704.2744750976564	773.5352172851565	-1212.967651367188	703.2977905273439	786.2271118164065	-1153.119262695313	694.3887329101564	706.0184326171876	-1160.984130859375	676.1140747070314	720.3480224609376	-1104.486694335938	654.9968261718751	271.1448669433594	-1094.405395507813	654.0930175781251	264.0294189453126	-1041.270874023438	649.3589477539064	221.3966674804688	-1068.1728515625	632.2346191406251	217.1636199951172	-1013.67138671875	584.4934692382814	83.31624603271486	-1105.310424804688	614.2659912109376	45.73373413085938	-1102.699951171875	556.0162963867189	44.90194320678712	-1098.236083984375	556.4218750000001	71.87819671630861	-876.273132324219	660.0011596679689	38.31535720825196	-913.551940917969	
159	0.6583333333333333	472.7575683593751	1087.36083984375	-1428.332153320313	581.1574096679689	1082.896118164063	-1425.3154296875	397.381805419922	1039.92138671875	-1225.449829101563	638.8988037109376	1041.689086914063	-1210.56689453125	330.5978088378907	775.9521484375002	-1349.5986328125	337.4307250976563	754.8807373046876	-1292.852172851563	336.8328247070313	692.1707153320314	-1339.598388671875	354.5416870117188	671.3138427734376	-1287.792358398438	398.1658630371095	365.7248229980469	-1632.7529296875	384.3404541015626	314.6965942382813	-1600.868530273438	401.3419189453126	313.5245666503907	-1659.937133789063	399.4123840332032	263.6822814941407	-1626.240600585938	470.0762634277345	247.5971221923829	-1785.779907226563	508.7085571289064	221.5534057617188	-1802.06396484375	446.4180603027345	219.9835510253907	-1817.8974609375	511.7814331054689	178.8629302978516	-1744.168334960938	415.3707885742189	178.2668914794922	-1780.20703125	486.5288696289064	147.0117492675782	-1700.981079101563	485.3950195312501	111.0664138793946	-1696.732055664063	432.3805541992189	112.6222839355469	-1684.1904296875	406.9158935546876	125.8067398071289	-1775.851684570313	495.8729553222657	54.54248809814455	-1691.2158203125	437.6710510253907	52.692928314209	-1675.937133789063	381.4559631347657	56.90414428710939	-1746.25146484375	447.8172912597657	27.4397087097168	-1642.883544921875	705.0269775390626	775.1043701171877	-1204.6533203125	703.9105224609376	787.920593261719	-1144.820556640625	695.1016845703126	707.6390380859376	-1152.606079101563	676.7481079101564	722.1411132812501	-1096.111938476563	655.8719482421876	271.6414184570313	-1090.934814453125	653.7239379882814	263.7535095214844	-1037.689086914063	649.1799926757814	221.4882354736329	-1065.2099609375	631.4028320312501	216.6372375488282	-1010.986999511719	584.2054443359376	83.47777557373048	-1105.061767578125	614.1182861328126	45.97944259643555	-1102.52001953125	555.9085693359376	44.87250137329102	-1098.1767578125	554.9192504882814	69.92241668701173	-876.227722167969	659.3867187500001	38.36731719970704	-913.2175903320315	
160	0.6625	473.0044250488282	1087.585205078125	-1420.96337890625	581.4769897460939	1084.025756835938	-1417.872924804688	398.3785705566407	1040.552856445313	-1217.814208984375	639.5574951171876	1042.561889648438	-1202.925048828125	330.4029846191407	775.2171020507815	-1339.199584960938	336.9835510253907	754.9539184570314	-1282.148315429688	336.2241821289063	691.4077148437501	-1328.130615234375	353.6333618164063	671.2523193359376	-1275.963745117188	397.184295654297	368.6125488281251	-1620.6484375	383.1040649414063	316.7732849121094	-1589.776611328125	400.1394348144532	316.8599853515626	-1648.684326171875	398.3034057617189	266.3328857421876	-1615.839965820313	468.606903076172	254.6191558837891	-1773.940307617188	507.1424560546876	229.3720092773438	-1791.226440429688	445.2674560546876	228.2044830322266	-1807.44384765625	510.1424865722657	183.8651733398438	-1736.482299804688	414.323211669922	185.0044403076172	-1771.12060546875	485.6336059570314	150.7734832763672	-1693.349731445313	484.5521850585939	114.7323379516602	-1690.533081054688	431.5722045898439	115.6478042602539	-1677.8857421875	406.2549133300782	132.3953094482422	-1769.185791015625	495.1566162109376	57.70482254028322	-1687.269287109375	437.0876464843751	54.4059295654297	-1672.3818359375	381.4908142089844	62.21380615234376	-1741.953125	447.4878540039064	26.63035583496094	-1640.857666015625	705.8045654296876	776.6204833984377	-1196.521606445313	704.4218139648439	789.642761230469	-1136.742797851563	695.8605346679689	709.3239746093751	-1144.370483398438	677.4492797851564	723.8413085937501	-1087.93115234375	656.0533447265626	272.1603088378907	-1087.597412109375	653.2182006835939	263.5937194824219	-1034.395874023438	648.8767089843751	221.6993560791016	-1062.529418945313	630.7258300781251	216.2676391601563	-1008.50732421875	584.0091552734376	83.61268615722658	-1104.84326171875	614.0233154296876	46.20097351074219	-1102.359985351563	555.8076171875001	44.9127426147461	-1098.088623046875	554.4806518554689	68.90887451171876	-875.920837402344	659.1658935546876	38.27968215942384	-912.966735839844	
